<svg width="68" height="105" viewBox="0 0 68 105" fill="none" xmlns="http://www.w3.org/2000/svg">
<path d="M13.7727 63H53.7727V94H13.7727V63Z" fill="#C4AF9A"/>
<path d="M13.7727 39H51.7727V53H13.7727V39Z" fill="#C4AF9A"/>
<path d="M5.77273 2.15192L11.3736 0L45.087 87.7462L39.4862 89.8982L5.77273 2.15192Z" fill="#616161"/>
<path d="M26.7727 88.5C26.7727 92.0899 23.8626 95 20.2727 95C16.6829 95 13.7727 92.0899 13.7727 88.5C13.7727 84.9102 16.6829 82 20.2727 82C23.8626 82 26.7727 84.9102 26.7727 88.5Z" fill="#1E1E24"/>
<path d="M38.7727 86.5C38.7727 90.0899 35.8626 93 32.2727 93C28.6829 93 25.7727 90.0899 25.7727 86.5C25.7727 82.9102 28.6829 80 32.2727 80C35.8626 80 38.7727 82.9102 38.7727 86.5Z" fill="#1E1E24"/>
<path d="M50.7727 90.5C50.7727 94.0899 47.8626 97 44.2727 97C40.6829 97 37.7727 94.0899 37.7727 90.5C37.7727 86.9102 40.6829 84 44.2727 84C47.8626 84 50.7727 86.9102 50.7727 90.5Z" fill="#1E1E24"/>
<path d="M53.7727 79.5C53.7727 83.0899 50.8626 86 47.2727 86C43.6829 86 40.7727 83.0899 40.7727 79.5C40.7727 75.9102 43.6829 73 47.2727 73C50.8626 73 53.7727 75.9102 53.7727 79.5Z" fill="#1E1E24"/>
<path d="M30.7727 76.5C30.7727 80.0899 27.8626 83 24.2727 83C20.6829 83 17.7727 80.0899 17.7727 76.5C17.7727 72.9102 20.6829 70 24.2727 70C27.8626 70 30.7727 72.9102 30.7727 76.5Z" fill="#1E1E24"/>
<path d="M42.7727 74.5C42.7727 78.0899 39.8626 81 36.2727 81C32.6829 81 29.7727 78.0899 29.7727 74.5C29.7727 70.9102 32.6829 68 36.2727 68C39.8626 68 42.7727 70.9102 42.7727 74.5Z" fill="#1E1E24"/>
<path d="M21.7727 68.5C21.7727 72.0899 18.8626 75 15.2727 75C11.6829 75 8.77273 72.0899 8.77273 68.5C8.77273 64.9102 11.6829 62 15.2727 62C18.8626 62 21.7727 64.9102 21.7727 68.5Z" fill="#1E1E24"/>
<path d="M13.7727 63H53.7727V94H13.7727V63Z" fill="#C4AF9A" fill-opacity="0.3"/>
<path d="M13.7727 39H51.7727V53H13.7727V39Z" fill="#C4AF9A" fill-opacity="0.3"/>
<path d="M0 105V11.9091H34.0909C40.697 11.9091 46.1667 13 50.5 15.1818C54.8333 17.3333 58.0758 20.2576 60.2273 23.9545C62.3788 27.6212 63.4546 31.7576 63.4546 36.3636C63.4546 40.2424 62.7424 43.5152 61.3182 46.1818C59.8939 48.8182 57.9849 50.9394 55.5909 52.5455C53.2273 54.1212 50.6212 55.2727 47.7727 56V56.9091C50.8636 57.0606 53.8788 58.0606 56.8182 59.9091C59.7879 61.7273 62.2424 64.3182 64.1818 67.6818C66.1212 71.0455 67.0909 75.1364 67.0909 79.9545C67.0909 84.7121 65.9697 88.9848 63.7273 92.7727C61.5152 96.5303 58.0909 99.5152 53.4545 101.727C48.8182 103.909 42.8939 105 35.6818 105H0ZM14.0455 92.9546H34.3182C41.0455 92.9546 45.8636 91.6515 48.7727 89.0455C51.6818 86.4394 53.1364 83.1818 53.1364 79.2727C53.1364 76.3333 52.3939 73.6364 50.9091 71.1818C49.4242 68.7273 47.303 66.7727 44.5455 65.3182C41.8182 63.8636 38.5758 63.1364 34.8182 63.1364H14.0455V92.9546ZM14.0455 52.1818H32.8636C36.0152 52.1818 38.8485 51.5758 41.3636 50.3636C43.9091 49.1515 45.9242 47.4545 47.4091 45.2727C48.9242 43.0606 49.6818 40.4545 49.6818 37.4545C49.6818 33.6061 48.3333 30.3788 45.6364 27.7727C42.9394 25.1667 38.803 23.8636 33.2273 23.8636H14.0455V52.1818Z" fill="#21A179"/>
</svg>
