<svg width="22" height="22" viewBox="0 0 22 22" fill="none" xmlns="http://www.w3.org/2000/svg">
<path d="M1.00152 11H6.99779M15.0022 11H20.9985M11 1.00151V6.99778L11 2.0056M11 20.9985V15.0022M3.93 3.93L8.17 8.17M13.83 13.83L18.07 18.07M18.07 3.93L13.83 8.17L17.36 4.64M3.93 18.07L8.17 13.83M18.0711 3.92893C21.9763 7.83418 21.9763 14.1658 18.0711 18.0711C14.1658 21.9763 7.83419 21.9763 3.92894 18.0711C0.0237012 14.1658 0.0237012 7.83418 3.92894 3.92893C7.83419 0.023689 14.1658 0.0236895 18.0711 3.92893ZM13.8284 8.17157C15.3905 9.73367 15.3905 12.2663 13.8284 13.8284C12.2663 15.3905 9.73368 15.3905 8.17159 13.8284C6.60949 12.2663 6.60949 9.73367 8.17159 8.17157C9.73368 6.60948 12.2663 6.60948 13.8284 8.17157ZM21 11C21 16.5228 16.5228 21 11 21C5.47715 21 1 16.5228 1 11C1 5.47715 5.47715 1 11 1C16.5228 1 21 5.47715 21 11ZM15 11C15 13.2091 13.2091 15 11 15C8.79086 15 7 13.2091 7 11C7 8.79086 8.79086 7 11 7C13.2091 7 15 8.79086 15 11Z" stroke="white" stroke-width="2" stroke-linecap="round" stroke-linejoin="round"/>
</svg>
